# xmcd
#
# Track frame offsets:
#	150
#	18209
#	39119
#	56845
#	72577
#	89775
#	105865
#	125183
#	145569
#	162435
#
# Disc length: 2376 seconds
#
# Revision: 2
# Processed by: cddbd v1.5.2PL0 Copyright (c) Steve Scherf et al.
# Submitted via: audiograbber 1.83.01
#
DISCID=8609460a
DTITLE=Lindsay May - Shimmer
DYEAR=2012
DGENRE=Pop
TTITLE0=Shimmer
TTITLE1=Star in the sky
TTITLE2=Spinning 45's
TTITLE3=Nashville
TTITLE4=Drive
TTITLE5=Lie to you
TTITLE6=Stick around
TTITLE7=It ain't easy being me
TTITLE8=Hang around
TTITLE9=Lie to you (acoustic)
EXTD=
EXTT0=
EXTT1=
EXTT2=
EXTT3=
EXTT4=
EXTT5=
EXTT6=
EXTT7=
EXTT8=
EXTT9=
PLAYORDER=
